<?xml version="1.0" encoding="utf-8"?>
<!-- Generator: Adobe Illustrator 19.0.0, SVG Export Plug-In . SVG Version: 6.00 Build 0)  -->
<svg version="1.1" xmlns="http://www.w3.org/2000/svg" xmlns:xlink="http://www.w3.org/1999/xlink" x="0px" y="0px"
	 viewBox="0 0 8000 1000" style="enable-background:new 0 0 8000 1000;" xml:space="preserve">
<style type="text/css">
	.st0{fill:#004466;}
	.st1{fill:#3FA9F5;}
</style>
<g id="Layer_1">
	<path id="XMLID_17_" class="st0" d="M2555.7,375.4c-67.2,128.8-17.4,287.6,111.4,354.9s287.6,17.4,354.9-111.4L3184.3,308l0,0
		c57.4,120.2,59.5,264.9-6.9,392c-112.1,214.6-376.9,297.7-591.5,185.7s-297.7-376.9-185.7-591.5
		c66.4-127.1,186.4-208.1,317.8-229.7l0,0L2555.7,375.4z"/>
	<path id="XMLID_16_" class="st0" d="M3065.3,156.9l-198.8,380.8c-22.4,42.9-75.4,59.5-118.3,37.1c-42.9-22.4-59.5-75.4-37.1-118.3
		l198.8-380.8l0,0c27.8,8,55.2,18.9,81.8,32.8C3018.3,122.4,3042.9,138.7,3065.3,156.9"/>
	<g id="XMLID_1_">
		<path id="XMLID_2_" class="st1" d="M3426.8,162.6h18.2c27.4,0,49.7,22.2,49.7,49.7v368.8c0,54.7,10.1,94.1,30.4,118.1
			c20.3,24,48.3,36,84.1,36c36.5,0,65.2-12,86.1-36c20.9-24,31.4-63.3,31.4-118.1V212.2c0-27.4,22.2-49.7,49.7-49.7h13.2
			c27.4,0,49.7,22.2,49.7,49.7v359.7c0,91.2-19.9,158.3-59.8,201.1c-39.9,42.9-96.6,64.3-170.2,64.3c-72.3,0-129-21.6-170.2-64.8
			c-41.2-43.2-61.8-110.1-61.8-200.6V212.2C3377.1,184.8,3399.4,162.6,3426.8,162.6z"/>
		<path id="XMLID_4_" class="st1" d="M4079.6,341.3l0,434.3c0,27.4-22.2,49.7-49.7,49.7h-13.2c-27.4,0-49.7-22.2-49.7-49.7V212.2
			c0-27.4,22.2-49.7,49.7-49.7h38.5c19.2,0,36.6,11,44.8,28.3L4264,535.5l48.6,110.8 M4312.7,450.3 M4312.7,646.3l0-434.1
			c0-27.4,22.2-49.7,49.7-49.7h13.2c27.4,0,49.7,22.2,49.7,49.7v563.4c0,27.4-22.2,49.7-49.7,49.7H4337c-19.2,0-36.6-11-44.9-28.4
			l-163.9-345.5l-48.6-110"/>
		<path id="XMLID_6_" class="st1" d="M4604.9,726h110.4V261.9h-110.4c-27.4,0-49.7-22.2-49.7-49.7v0c0-27.4,22.2-49.7,49.7-49.7
			h338.4c27.4,0,49.7,22.2,49.7,49.7v0c0,27.4-22.2,49.7-49.7,49.7h-110.4V726h110.4c27.4,0,49.7,22.2,49.7,49.7v0
			c0,27.4-22.2,49.7-49.7,49.7h-338.4c-27.4,0-49.7-22.2-49.7-49.7v0C4555.3,748.2,4577.5,726,4604.9,726z"/>
		<path id="XMLID_8_" class="st1" d="M5323.3,261.9h-159.1c-27.4,0-49.7-22.2-49.7-49.7v0c0-27.4,22.2-49.7,49.7-49.7H5600
			c27.4,0,49.7,22.2,49.7,49.7v0c0,27.4-22.2,49.7-49.7,49.7h-159.1v513.7c0,27.4-22.2,49.7-49.7,49.7H5373
			c-27.4,0-49.7-22.2-49.7-49.7V261.9z"/>
	</g>
</g>
<g id="Layer_2">
	<path id="XMLID_12_" class="st0" d="M1467.6,500L1467.6,500c0-16.2-13.2-29.4-29.4-29.4h-293.9c-16.2,0-29.4,13.2-29.4,29.4v0
		c0,16.2,13.2,29.4,29.4,29.4h293.9C1454.4,529.4,1467.6,516.2,1467.6,500z"/>
	<path id="XMLID_14_" class="st0" d="M1320.6,646.9V353.1c0-16.2-13.2-29.4-29.4-29.4l0,0c-16.2,0-29.4,13.2-29.4,29.4v293.9
		c0,16.2,13.2,29.4,29.4,29.4l0,0C1307.5,676.3,1320.6,663.2,1320.6,646.9z"/>
	<path id="XMLID_28_" class="st1" d="M352.6,500.4v-0.9c0-16-13-28.9-28.9-28.9c-66.3,0-228.5,0-294.8,0c-16,0-28.9,13-28.9,28.9
		c0,0.3,0,0.6,0,0.9c0,16,13,28.9,28.9,28.9c66.3,0,228.5,0,294.8,0C339.7,529.4,352.6,516.4,352.6,500.4z"/>
	<path id="XMLID_25_" class="st1" d="M235.1,383.3v-1.8c0-32-25.9-57.9-57.9-57.9c-0.6,0-1.2,0-1.8,0c-32,0-57.9,25.9-57.9,57.9
		c0,0.6,0,1.2,0,1.8c0,32,25.9,57.9,57.9,57.9c0.6,0,1.2,0,1.8,0C209.2,441.2,235.1,415.3,235.1,383.3z"/>
	<path id="XMLID_24_" class="st1" d="M235.1,618.4v-1.8c0-32-25.9-57.9-57.9-57.9c-0.6,0-1.2,0-1.8,0c-32,0-57.9,25.9-57.9,57.9
		c0,0.6,0,1.2,0,1.8c0,32,25.9,57.9,57.9,57.9c0.6,0,1.2,0,1.8,0C209.2,676.3,235.1,650.4,235.1,618.4z"/>
	<path id="XMLID_15_" class="st1" d="M862.8,375.3L862.8,375.3c-11.5-11.5-30.1-11.5-41.6,0L627.7,568.9
		c-25.7,25.7-25.7,44.3-14.3,55.8h0c11.5,11.5,30.1,11.5,41.6,0c47-47,160.8-160.8,207.8-207.8C874.3,405.4,874.3,386.8,862.8,375.3
		z"/>
	<path id="XMLID_11_" class="st1" d="M862.8,583.1L655,375.3c-11.5-11.5-30.1-11.5-41.6,0l0,0c-11.5,11.5-11.5,30.1,0,41.6
		l207.8,207.8c11.5,11.5,30.1,11.5,41.6,0h0C874.3,613.2,874.3,594.6,862.8,583.1z"/>
	<path id="XMLID_26_" class="st1" d="M6532.5,500L6532.5,500c0-16.2,13.2-29.4,29.4-29.4h293.9c16.2,0,29.4,13.2,29.4,29.4v0
		c0,16.2-13.2,29.4-29.4,29.4h-293.9C6545.6,529.4,6532.5,516.2,6532.5,500z"/>
	<path id="XMLID_23_" class="st1" d="M6679.4,646.9V353.1c0-16.2,13.2-29.4,29.4-29.4l0,0c16.2,0,29.4,13.2,29.4,29.4v293.9
		c0,16.2-13.2,29.4-29.4,29.4l0,0C6692.5,676.3,6679.4,663.2,6679.4,646.9z"/>
	<path id="XMLID_22_" class="st1" d="M7647.4,500L7647.4,500c0-16.2,13.2-29.4,29.4-29.4h293.9c16.2,0,29.4,13.2,29.4,29.4v0
		c0,16.2-13.2,29.4-29.4,29.4h-293.9C7660.5,529.4,7647.4,516.2,7647.4,500z"/>
	<path id="XMLID_21_" class="st1" d="M7764.9,383.3v-1.8c0-32,25.9-57.9,57.9-57.9c0.6,0,1.2,0,1.8,0c32,0,57.9,25.9,57.9,57.9
		c0,0.6,0,1.2,0,1.8c0,32-25.9,57.9-57.9,57.9c-0.6,0-1.2,0-1.8,0C7790.8,441.2,7764.9,415.3,7764.9,383.3z"/>
	<path id="XMLID_20_" class="st1" d="M7764.9,618.4v-1.8c0-32,25.9-57.9,57.9-57.9c0.6,0,1.2,0,1.8,0c32,0,57.9,25.9,57.9,57.9
		c0,0.6,0,1.2,0,1.8c0,32-25.9,57.9-57.9,57.9c-0.6,0-1.2,0-1.8,0C7790.8,676.3,7764.9,650.4,7764.9,618.4z"/>
	<path id="XMLID_19_" class="st0" d="M7137.2,375.3L7137.2,375.3c11.5-11.5,30.1-11.5,41.6,0l193.5,193.5
		c25.7,25.7,25.7,44.3,14.3,55.8l0,0c-11.5,11.5-30.1,11.5-41.6,0c-47-47-160.8-160.8-207.8-207.8
		C7125.7,405.4,7125.7,386.8,7137.2,375.3z"/>
	<path id="XMLID_18_" class="st0" d="M7137.2,583.1L7345,375.3c11.5-11.5,30.1-11.5,41.6,0v0c11.5,11.5,11.5,30.1,0,41.6
		l-207.8,207.8c-11.5,11.5-30.1,11.5-41.6,0l0,0C7125.7,613.2,7125.7,594.6,7137.2,583.1z"/>
</g>
</svg>
